<svg xmlns="http://www.w3.org/2000/svg" viewBox="-92 -1354 6177 2044" width="6177" height="2044" data-units-per-space="250" data-pas="17" data-rudiment="double-paradiddle" data-family="Diddle" role="img" aria-label="Double Paradiddle (PAS 17)">
<!-- PAS 17 — Double Paradiddle (Diddle; Sextuplet). Right-hand lead. Composed from Bravura-extracted glyphs — SIL OFL 1.1, see LICENSE-bravura.txt. -->
<g fill="currentColor">
<path transform="translate(0 0) scale(1 -1)" d="M97 -125C186 -125 295 -43 295 42C295 93 255 125 198 125C88 125 0 44 0 -42C0 -94 43 -125 97 -125Z"/>
<rect x="265" y="-875" width="30" height="833"/>
<path transform="translate(-22 -1039) scale(1 -1)" d="M326 105C339 108 339 115 339 123C339 131 339 137 326 141L26 243C22 244 18 245 17 245C8 245 5 239 2 231C1 227 0 224 0 221C0 216 3 211 14 207C14 207 230 134 240 130C245 129 247 126 247 123C247 120 245 118 239 116C228 113 14 40 14 40C3 35 0 30 0 25C0 22 1 19 2 16C5 9 9 1 16 1C17 1 19 1 20 2Z"/>
<path transform="translate(-25.7 620) scale(0.20093770931011387 -0.20093770931011387)" d="M735 831Q856 831 908.5 876.0Q961 921 961 1024Q961 1126 908.5 1170.0Q856 1214 735 1214H573V831ZM573 565V0H188V1493H776Q1071 1493 1208.5 1394.0Q1346 1295 1346 1081Q1346 933 1274.5 838.0Q1203 743 1059 698Q1138 680 1200.5 616.5Q1263 553 1327 424L1536 0H1126L944 371Q889 483 832.5 524.0Q776 565 682 565Z"/>
<path transform="translate(520 0) scale(1 -1)" d="M97 -125C186 -125 295 -43 295 42C295 93 255 125 198 125C88 125 0 44 0 -42C0 -94 43 -125 97 -125Z"/>
<rect x="785" y="-875" width="30" height="833"/>
<path transform="translate(523.1 620) scale(0.20093770931011387 -0.20093770931011387)" d="M188 1493H573V291H1249V0H188Z"/>
<path transform="translate(1040 0) scale(1 -1)" d="M97 -125C186 -125 295 -43 295 42C295 93 255 125 198 125C88 125 0 44 0 -42C0 -94 43 -125 97 -125Z"/>
<rect x="1305" y="-875" width="30" height="833"/>
<path transform="translate(1014.3 620) scale(0.20093770931011387 -0.20093770931011387)" d="M735 831Q856 831 908.5 876.0Q961 921 961 1024Q961 1126 908.5 1170.0Q856 1214 735 1214H573V831ZM573 565V0H188V1493H776Q1071 1493 1208.5 1394.0Q1346 1295 1346 1081Q1346 933 1274.5 838.0Q1203 743 1059 698Q1138 680 1200.5 616.5Q1263 553 1327 424L1536 0H1126L944 371Q889 483 832.5 524.0Q776 565 682 565Z"/>
<path transform="translate(1560 0) scale(1 -1)" d="M97 -125C186 -125 295 -43 295 42C295 93 255 125 198 125C88 125 0 44 0 -42C0 -94 43 -125 97 -125Z"/>
<rect x="1825" y="-875" width="30" height="833"/>
<path transform="translate(1563.1 620) scale(0.20093770931011387 -0.20093770931011387)" d="M188 1493H573V291H1249V0H188Z"/>
<path transform="translate(2080 0) scale(1 -1)" d="M97 -125C186 -125 295 -43 295 42C295 93 255 125 198 125C88 125 0 44 0 -42C0 -94 43 -125 97 -125Z"/>
<rect x="2345" y="-875" width="30" height="833"/>
<path transform="translate(2054.3 620) scale(0.20093770931011387 -0.20093770931011387)" d="M735 831Q856 831 908.5 876.0Q961 921 961 1024Q961 1126 908.5 1170.0Q856 1214 735 1214H573V831ZM573 565V0H188V1493H776Q1071 1493 1208.5 1394.0Q1346 1295 1346 1081Q1346 933 1274.5 838.0Q1203 743 1059 698Q1138 680 1200.5 616.5Q1263 553 1327 424L1536 0H1126L944 371Q889 483 832.5 524.0Q776 565 682 565Z"/>
<path transform="translate(2600 0) scale(1 -1)" d="M97 -125C186 -125 295 -43 295 42C295 93 255 125 198 125C88 125 0 44 0 -42C0 -94 43 -125 97 -125Z"/>
<rect x="2865" y="-875" width="30" height="833"/>
<path transform="translate(2574.3 620) scale(0.20093770931011387 -0.20093770931011387)" d="M735 831Q856 831 908.5 876.0Q961 921 961 1024Q961 1126 908.5 1170.0Q856 1214 735 1214H573V831ZM573 565V0H188V1493H776Q1071 1493 1208.5 1394.0Q1346 1295 1346 1081Q1346 933 1274.5 838.0Q1203 743 1059 698Q1138 680 1200.5 616.5Q1263 553 1327 424L1536 0H1126L944 371Q889 483 832.5 524.0Q776 565 682 565Z"/>
<rect x="265" y="-875" width="2630" height="125"/>
<rect x="265" y="-687.5" width="550" height="125"/>
<rect x="785" y="-687.5" width="550" height="125"/>
<rect x="1305" y="-687.5" width="550" height="125"/>
<rect x="1825" y="-687.5" width="550" height="125"/>
<rect x="2345" y="-687.5" width="550" height="125"/>
<path transform="translate(3120 0) scale(1 -1)" d="M97 -125C186 -125 295 -43 295 42C295 93 255 125 198 125C88 125 0 44 0 -42C0 -94 43 -125 97 -125Z"/>
<rect x="3385" y="-875" width="30" height="833"/>
<path transform="translate(3098 -1039) scale(1 -1)" d="M326 105C339 108 339 115 339 123C339 131 339 137 326 141L26 243C22 244 18 245 17 245C8 245 5 239 2 231C1 227 0 224 0 221C0 216 3 211 14 207C14 207 230 134 240 130C245 129 247 126 247 123C247 120 245 118 239 116C228 113 14 40 14 40C3 35 0 30 0 25C0 22 1 19 2 16C5 9 9 1 16 1C17 1 19 1 20 2Z"/>
<path transform="translate(3123.1 620) scale(0.20093770931011387 -0.20093770931011387)" d="M188 1493H573V291H1249V0H188Z"/>
<path transform="translate(3640 0) scale(1 -1)" d="M97 -125C186 -125 295 -43 295 42C295 93 255 125 198 125C88 125 0 44 0 -42C0 -94 43 -125 97 -125Z"/>
<rect x="3905" y="-875" width="30" height="833"/>
<path transform="translate(3614.3 620) scale(0.20093770931011387 -0.20093770931011387)" d="M735 831Q856 831 908.5 876.0Q961 921 961 1024Q961 1126 908.5 1170.0Q856 1214 735 1214H573V831ZM573 565V0H188V1493H776Q1071 1493 1208.5 1394.0Q1346 1295 1346 1081Q1346 933 1274.5 838.0Q1203 743 1059 698Q1138 680 1200.5 616.5Q1263 553 1327 424L1536 0H1126L944 371Q889 483 832.5 524.0Q776 565 682 565Z"/>
<path transform="translate(4160 0) scale(1 -1)" d="M97 -125C186 -125 295 -43 295 42C295 93 255 125 198 125C88 125 0 44 0 -42C0 -94 43 -125 97 -125Z"/>
<rect x="4425" y="-875" width="30" height="833"/>
<path transform="translate(4163.1 620) scale(0.20093770931011387 -0.20093770931011387)" d="M188 1493H573V291H1249V0H188Z"/>
<path transform="translate(4680 0) scale(1 -1)" d="M97 -125C186 -125 295 -43 295 42C295 93 255 125 198 125C88 125 0 44 0 -42C0 -94 43 -125 97 -125Z"/>
<rect x="4945" y="-875" width="30" height="833"/>
<path transform="translate(4654.3 620) scale(0.20093770931011387 -0.20093770931011387)" d="M735 831Q856 831 908.5 876.0Q961 921 961 1024Q961 1126 908.5 1170.0Q856 1214 735 1214H573V831ZM573 565V0H188V1493H776Q1071 1493 1208.5 1394.0Q1346 1295 1346 1081Q1346 933 1274.5 838.0Q1203 743 1059 698Q1138 680 1200.5 616.5Q1263 553 1327 424L1536 0H1126L944 371Q889 483 832.5 524.0Q776 565 682 565Z"/>
<path transform="translate(5200 0) scale(1 -1)" d="M97 -125C186 -125 295 -43 295 42C295 93 255 125 198 125C88 125 0 44 0 -42C0 -94 43 -125 97 -125Z"/>
<rect x="5465" y="-875" width="30" height="833"/>
<path transform="translate(5203.1 620) scale(0.20093770931011387 -0.20093770931011387)" d="M188 1493H573V291H1249V0H188Z"/>
<path transform="translate(5720 0) scale(1 -1)" d="M97 -125C186 -125 295 -43 295 42C295 93 255 125 198 125C88 125 0 44 0 -42C0 -94 43 -125 97 -125Z"/>
<rect x="5985" y="-875" width="30" height="833"/>
<path transform="translate(5723.1 620) scale(0.20093770931011387 -0.20093770931011387)" d="M188 1493H573V291H1249V0H188Z"/>
<rect x="3385" y="-875" width="2630" height="125"/>
<rect x="3385" y="-687.5" width="550" height="125"/>
<rect x="3905" y="-687.5" width="550" height="125"/>
<rect x="4425" y="-687.5" width="550" height="125"/>
<rect x="4945" y="-687.5" width="550" height="125"/>
<rect x="5465" y="-687.5" width="550" height="125"/>
</g>
</svg>
